<svg xmlns="http://www.w3.org/2000/svg" width="192" height="192" viewBox="0 0 192 192">
  <rect width="192" height="192" rx="32" fill="#0d0d0d"/>
  <path d="M96 40c-30.9 0-56 25.1-56 56s25.1 56 56 56 56-25.1 56-56-25.1-56-56-56zm0 96c-22.1 0-40-17.9-40-40 0-16.2 9.6-30.1 23.4-36.4l6.6 15.4c-7.8 3.9-13 11.9-13 21 0 12.7 10.3 23 23 23s23-10.3 23-23c0-9.1-5.2-17.1-13-21l6.6-15.4C126.4 65.9 136 79.8 136 96c0 22.1-17.9 40-40 40z" fill="#00c8a0"/>
  <text x="96" y="160" text-anchor="middle" font-family="system-ui" font-size="16" font-weight="600" fill="#fff">SLEEP</text>
</svg>
