<svg xmlns="http://www.w3.org/2000/svg" width="512" height="512" viewBox="0 0 512 512">
  <rect width="512" height="512" rx="80" fill="#0d0d0d"/>
  <path d="M256 96c-88.4 0-160 71.6-160 160s71.6 160 160 160 160-71.6 160-160S344.4 96 256 96zm0 272c-61.9 0-112-50.1-112-112 0-45.3 26.9-84.3 65.6-101.9l18.4 43.1c-21.8 10.9-36.8 33.4-36.8 59.1 0 36.5 29.5 65.7 65.7 65.7 36.5 0 65.7-29.5 65.7-65.7 0-25.4-15-47.9-36.8-59.1l18.4-43.1C365.1 171.7 368 210.7 368 256c0 61.9-50.1 112-112 112z" fill="#00c8a0"/>
</svg>
